<?xml version="1.0" encoding="UTF-8" standalone="no"?>
<svg
   xmlns:dc="http://purl.org/dc/elements/1.1/"
   xmlns:cc="http://creativecommons.org/ns#"
   xmlns:rdf="http://www.w3.org/1999/02/22-rdf-syntax-ns#"
   xmlns:svg="http://www.w3.org/2000/svg"
   xmlns="http://www.w3.org/2000/svg"
   xmlns:sodipodi="http://sodipodi.sourceforge.net/DTD/sodipodi-0.dtd"
   xmlns:inkscape="http://www.inkscape.org/namespaces/inkscape"
   inkscape:export-ydpi="96"
   inkscape:export-xdpi="96"
   inkscape:export-filename="/Users/l131597/Documents/Misc/personal-website/src/assets/img/drawing.png"
   sodipodi:docname="drawing.svg"
   inkscape:version="1.0rc1 (09960d6, 2020-04-09)"
   width="480px"
   height="480px"
   viewBox="0 0 480 480"
   version="1.1"
   id="SVGRoot">
  <defs
     id="defs803">
    <marker
       inkscape:isstock="true"
       style="overflow:visible;"
       id="Arrow1Lend"
       refX="0.0"
       refY="0.0"
       orient="auto"
       inkscape:stockid="Arrow1Lend">
      <path
         transform="scale(0.8) rotate(180) translate(12.5,0)"
         style="fill-rule:evenodd;stroke:none;stroke-width:1pt;stroke-opacity:1;fill:#ff7f2a;fill-opacity:1"
         d="M 0.0,0.0 L 5.0,-5.0 L -12.5,0.0 L 5.0,5.0 L 0.0,0.0 z "
         id="path1684" />
    </marker>
    <rect
       id="rect854"
       height="174.51866"
       width="159.0441"
       y="205.46778"
       x="196.01111" />
  </defs>
  <sodipodi:namedview
     inkscape:window-maximized="0"
     inkscape:window-y="266"
     inkscape:window-x="1"
     inkscape:window-height="914"
     inkscape:window-width="1680"
     showgrid="false"
     inkscape:document-rotation="0"
     inkscape:current-layer="layer1"
     inkscape:document-units="px"
     inkscape:cy="263.95348"
     inkscape:cx="278.60242"
     inkscape:zoom="1.1631994"
     inkscape:pageshadow="2"
     inkscape:pageopacity="0.0"
     borderopacity="1.0"
     bordercolor="#666666"
     pagecolor="#ffffff"
     id="base" />
  <metadata
     id="metadata806">
    <rdf:RDF>
      <cc:Work
         rdf:about="">
        <dc:format>image/svg+xml</dc:format>
        <dc:type
           rdf:resource="http://purl.org/dc/dcmitype/StillImage" />
        <dc:title></dc:title>
      </cc:Work>
    </rdf:RDF>
  </metadata>
  <g
     id="layer1"
     inkscape:groupmode="layer"
     inkscape:label="Layer 1">
    <circle
       r="0.11451175"
       cy="33.528217"
       cx="67.056435"
       style="fill:#ff7f2a;stroke:#000000"
       id="path828" />
    <text
       style="fill:black;fill-opacity:1;line-height:1.25;stroke:none;font-family:sans-serif;font-style:normal;font-weight:normal;font-size:40px;white-space:pre;shape-inside:url(#rect854);"
       id="text852"
       xml:space="preserve" />
    <circle
       r="0.18825734"
       cy="188.27383"
       cx="-71.354919"
       style="fill:#ff9c16;stroke:#000000"
       id="path1975" />
    <path
       inkscape:connector-curvature="0"
       d="m 100.82022,45.843078 c -2.626251,0.978244 -5.309739,1.800452 -7.878759,2.934733 -9.357415,4.131516 -20.71512,10.249593 -29.43347,15.218518 -8.735499,4.978699 -27.187835,16.230273 -35.358348,21.592059 -5.565265,3.652128 -10.968348,7.571349 -16.452522,11.357019 14.929587,-1.06252 -17.9362584,8.864883 -13.5009094,13.404463 8.9152891,9.1248 19.5124244,0.53003 27.7224254,-3.44921 19.516628,-9.459373 32.701391,-17.409783 51.865393,-28.304117 23.90104,-13.659594 47.28665,-28.276339 70.90926,-42.453305 5.26305,-3.158591 10.5882,-6.202421 15.82938,-9.401085 8.93145,-5.450808 9.50043,-5.957846 16.81685,-11.004651 0.57821,-0.58317 2.10947,-1.004576 1.73461,-1.749509 -1.13052,-2.246573 -3.08023,-4.1463417 -5.25619,-5.2486157 -0.98607,-0.499514 -2.12627,0.570782 -3.14436,0.993158 -3.5109,1.4565877 -5.95183,3.0501007 -9.30337,4.9389797 -2.83155,1.595817 -5.67374,3.170616 -8.5106,4.755924 -15.55478,10.145552 -32.05352,18.537681 -47.80365,28.331653 -8.04759,5.004269 -16.018062,10.154611 -23.829247,15.558212 -18.69366,12.931853 -23.211168,17.174055 -40.375852,31.225293 -4.54203,4.33056 -9.291627,8.431393 -13.626093,12.991683 -2.741365,2.88419 -5.693784,5.72345 -7.560843,9.2991 -0.808589,1.54855 -1.641321,4.70072 -0.06276,5.30103 14.397355,5.47508 26.078952,-2.39843 38.851384,-8.16438 C 72.8053,109.29641 82.974357,104.18401 93.235262,99.291007 124.4802,83.302041 155.32881,66.404813 185.34339,47.972958 c 6.28362,-3.85875 12.47197,-7.888733 18.63594,-11.955807 10.31906,-6.808659 8.083,-5.087618 14.34955,-10.610087 -2.06761,-1.479147 -3.76315,-3.864107 -6.20284,-4.437442 -1.66142,-0.390436 -3.24673,1.105867 -4.79401,1.853149 -1.45711,0.703731 -14.49755,8.058471 -15.2031,8.443198 -24.71555,13.477049 -5.91423,2.536858 -35.32671,20.442605 -23.54525,15.49704 -45.92084,32.941889 -66.983479,51.989306 -6.070509,5.48969 -11.860302,11.31454 -17.762268,17.00434 -5.653355,5.45012 -11.370635,10.82965 -16.903476,16.41519 -4.758484,4.80381 -9.309184,9.83071 -13.963776,14.74607 -1.270478,1.47767 -13.071242,14.35699 -14.823819,18.71918 -0.480502,1.19598 -0.706511,3.6836 0.515696,3.85772 14.393581,2.05057 20.09294,-4.48162 32.033126,-12.00066 8.14352,-5.12819 16.224639,-10.36543 24.336958,-15.54815 32.245688,-19.43493 63.527028,-40.5555 94.818568,-61.62437 13.10764,-8.825477 27.81502,-18.647991 40.88871,-27.891927 3.53842,-2.501885 7.00197,-5.119189 10.50296,-7.678784 7.27182,-6.396752 4.24992,-1.900289 0.28914,-4.237355 -1.16644,-0.688259 -1.34585,-2.881865 -2.65555,-3.165519 -1.12849,-0.24441 -1.95837,1.279648 -2.91249,1.95959 -1.45719,1.038441 -4.48957,3.38605 -5.98512,4.534916 -0.37245,1.155078 -2.15145,1.357248 -2.67021,2.4816 -0.0714,0.154963 0.35408,-0.240948 0.47604,-0.126096 1.62693,1.532128 2.66581,3.842106 4.60028,4.906624 0.7725,0.425098 1.61943,-0.680116 2.41982,-1.043535 1.86765,-0.84801 3.72248,-1.726989 5.58372,-2.590484 11.31757,-5.063746 22.20571,-11.161119 32.70419,-17.892435 4.83098,-3.097474 11.1942,-7.448497 15.74629,-11.365191 1.02164,-0.879029 1.88295,-1.946425 2.82443,-2.919637 -2.01714,-1.774681 -3.45033,-4.924218 -6.05142,-5.324042 -2.68266,-0.412362 -5.04331,2.099464 -7.53009,3.236372 -6.08111,2.780164 -12.193,5.495826 -18.17103,8.513672 -11.53032,5.820774 -51.02742,27.269425 -59.78785,32.277778 -11.7787,6.733905 -23.33843,13.884035 -35.00764,20.826053 -27.23539,17.798757 -55.492303,34.1126 -81.290524,54.26045 -4.455906,3.47997 -8.792041,7.1595 -12.81495,11.18195 -1.908263,1.90805 -4.296844,3.82489 -4.892753,6.52374 -0.506601,2.29439 1.306662,4.5058 1.959992,6.75869 4.312759,-0.86862 8.77104,-1.14895 12.938275,-2.60585 11.070751,-3.8704 29.765887,-14.85064 39.30309,-19.88138 20.72904,-10.93427 46.13553,-23.69806 66.7388,-34.22115 12.39506,-6.330743 24.77408,-12.696225 37.16112,-19.044339 19.05619,-9.842626 40.92478,-21.087756 60.11931,-31.171805 5.95561,-3.128844 11.89066,-6.300979 17.82256,-9.479366 2.88497,-1.545802 6.01101,-2.686784 8.6278,-4.693072 0.44113,-0.338222 -0.97253,-0.523216 -1.44185,-0.816389 -1.4975,-0.935454 -2.97132,-1.912313 -4.45697,-2.868469 -9.31605,5.080334 -18.70711,10.039116 -27.86282,15.43858 -2.74893,1.621144 -5.42566,3.376162 -8.18234,4.982631 -4.24124,2.471593 -8.53933,4.833429 -12.809,7.250143 -10.81915,6.307589 -21.12662,13.521901 -31.81727,20.055429 -8.11177,4.95746 -16.41622,9.559942 -24.52534,14.522174 -11.50696,7.041473 -48.53083,30.579923 -59.08476,37.672233 -9.06175,6.08957 -17.88809,12.55905 -26.83214,18.83858 -20.353112,14.48545 -40.774373,28.87953 -60.122916,44.84233 -3.281277,2.7071 -17.04839,14.57485 -20.908881,18.26289 -1.948077,1.86106 -3.713351,3.92381 -5.570026,5.88572 -0.128059,0.19843 -6.1079453,7.75592 -1.563835,8.54549 8.059587,1.40041 19.399306,-6.99116 25.236235,-10.55017 16.000641,-9.7562 27.928077,-17.41973 44.143506,-27.68404 22.875287,-14.1113 44.502217,-27.5517 67.609287,-41.36921 12.71367,-7.60249 25.51607,-15.03927 38.28006,-22.54767 12.22403,-7.19077 24.40309,-14.46737 36.68402,-21.54983 11.10043,-6.401653 45.60252,-25.698897 58.64111,-33.005553 16.97436,-8.700437 16.09053,-8.601108 31.07,-15.239047 2.24021,-0.992716 4.62319,-1.646845 6.77736,-2.832025 0.22301,-0.122694 -0.19034,-0.499316 -0.34966,-0.704369 -3.16727,-4.076357 -1.45241,-1.234796 -2.92861,-3.823171 -2.31109,1.637847 0.9711,-0.898425 3.90251,0.722522 1.18231,0.653765 0.88959,3.267801 2.20278,3.523386 1.63531,0.31828 3.00447,-1.503142 4.52423,-2.214116 21.78158,-10.189854 -7.3885,3.77197 18.75957,-8.825278 2.15634,-1.117127 14.52236,-7.242242 17.39874,-9.614463 0.35062,-0.289156 0.20791,-1.294618 -0.22893,-1.385958 -5.36451,-1.121698 -10.90724,-3.089242 -16.28984,-2.068049 -9.81353,1.86184 -55.76849,23.419878 -61.02189,25.793778 -31.56729,15.15858 -53.48222,25.230895 -84.58401,42.07129 -13.28473,7.193163 -26.32785,14.873533 -39.37497,22.533653 -23.7693,13.95523 -38.87314,23.16948 -61.08302,38.43757 -6.877241,4.72774 -13.548925,9.77895 -20.323388,14.66842 -10.920037,8.464 -22.011406,17.03968 -30.561864,28.26566 -1.469071,1.92876 -2.692504,4.05159 -4.066535,6.0565 -8.70383,12.70014 0.693691,-1.34071 -7.403007,10.83593 -0.805719,1.23963 -4.337854,6.48401 -5.087631,8.26244 -0.396958,0.94157 -1.607268,2.58108 -0.712581,2.99801 12.353699,5.75694 16.660796,0.33341 28.672844,-5.51511 10.880645,-5.29765 21.664776,-10.81234 32.497163,-16.21852 62.871539,-34.93431 25.243739,-13.6301 91.792979,-52.35607 17.36407,-10.10439 34.8074,-20.05825 52.12259,-30.25517 38.97553,-22.95268 77.52251,-46.678413 116.035,-70.475681 7.7275,-7.713235 18.4615,-10.507638 26.9561,-16.94218 0.27731,-0.210068 -0.25133,-0.702393 -0.51213,-0.934743 -1.1093,-0.988297 -2.09013,-2.599753 -3.54143,-2.676647 -1.35555,-0.07182 -2.29986,1.518768 -3.43187,2.307181 -1.49863,1.043747 -2.97285,2.125838 -4.45927,3.188757 -5.54449,4.24409 -11.96148,6.728208 -18.14386,9.693467 -3.88538,1.863548 -7.70192,3.884875 -11.60122,5.715909 -7.36981,3.460715 -14.8874,6.572378 -22.20317,10.157954 -10.00267,4.902468 -19.82635,10.199999 -29.73953,15.299998 -38.55561,20.726215 -76.36513,42.960185 -113.44473,66.479375 -23.37681,14.82765 -44.15766,28.48913 -66.42864,44.85092 -7.66717,5.63283 -15.050415,11.68243 -22.575622,17.52364 -12.77148,11.03018 -14.96197,12.32651 -25.53363,23.25478 -2.277251,2.35407 -4.509079,4.76419 -6.597249,7.30519 -1.180815,1.43688 -4.882312,6.18179 -5.272729,8.88115 -0.187126,1.2938 0.278312,2.60098 0.417467,3.90148 1.978612,0.7806 3.834345,2.11041 5.935834,2.34178 1.071385,0.11796 2.012962,-0.82443 2.961394,-1.36222 0.747855,-0.42406 3.738452,-2.65015 4.505638,-3.26175 0.685383,-0.54638 1.292692,-1.20392 2.014704,-1.69523 1.268786,-0.86337 2.627041,-1.57143 3.940561,-2.35715 12.162458,-5.94443 18.849236,-9.09184 32.003002,-16.33712 9.22339,-5.08039 18.30098,-10.44911 27.43054,-15.71402 11.3864,-6.56641 22.77828,-13.12288 34.11713,-19.77985 29.80533,-17.49852 45.16686,-26.90034 74.84037,-44.81805 43.88028,-26.30999 26.20453,-16.06357 69.44757,-40.64419 9.78373,-5.56136 19.51968,-11.218163 29.37547,-16.636623 16.88455,-9.282697 34.10166,-17.906347 51.15224,-26.84423 2.37131,-1.318001 8.44033,-3.9188 -4.28045,-4.968904 -2.25971,-0.186539 -4.18328,1.83974 -6.25793,2.800966 -3.97547,1.84192 -7.95447,3.677277 -11.89171,5.608127 -15.53784,7.619884 -28.39037,14.426154 -44.04652,22.547623 -46.8522,25.548221 -92.66457,53.236421 -137.14747,83.119701 -11.24817,7.55644 -22.4414,15.21022 -33.45019,23.14787 -10.28664,7.41697 -20.2825,15.27138 -30.42375,22.90707 -17.34445,14.29401 -28.623134,22.58902 -43.819006,38.39186 -3.650021,3.79583 -7.158104,7.79727 -10.128114,12.20167 -3.511245,5.20703 -4.720635,11.10229 4.460349,12.83095 2.822572,0.53145 5.339408,-2.20291 8.009112,-3.30437 2.879124,-1.68899 5.82722,-3.25377 8.637371,-5.06697 19.125208,-12.34022 -2.197899,0.55447 15.563258,-11.21415 7.08237,-4.69282 14.07691,-7.98941 21.6564,-11.9226 6.22735,-3.23153 12.45588,-6.46058 18.68382,-9.69088 8.22401,-4.48099 16.43604,-8.98648 24.67205,-13.44297 10.86836,-5.88085 21.82776,-11.57633 32.6409,-17.56898 27.14563,-15.04417 47.2932,-26.96805 73.98373,-42.92316 11.5809,-6.92285 23.1564,-13.85705 34.65681,-20.92708 9.75448,-5.9967 19.40376,-12.18116 29.10564,-18.27173 16.63597,-10.6585 21.48371,-13.40521 36.00552,-23.75092 2.07116,-1.47554 4.43381,-2.64798 6.07535,-4.6343 0.40571,-0.49091 -1.26133,-0.20658 -1.77278,-0.57192 -1.47798,-1.05576 -2.31919,-3.571863 -4.10446,-3.626333 -2.3839,-0.0727 -4.28625,2.203313 -6.42938,3.304963 -18.75087,9.98215 -37.56455,19.83286 -56.33405,29.77595 -11.45577,6.06866 -23.00105,11.95522 -34.3468,18.24887 -33.2014,18.41728 -49.17358,28.60979 -82.22669,48.71175 -37.91884,24.08514 -75.0744,49.70996 -109.875829,78.6064 -13.024323,10.8144 -28.566315,24.57623 -39.855914,37.97496 -3.167999,3.75984 -5.640406,8.11055 -8.460609,12.16582 -0.60521,2.1256 -5.443768,12.43392 1.058699,14.08027 9.918099,2.51117 25.543099,-6.48438 32.905272,-10.3336 20.723923,-10.83524 37.100281,-21.31285 57.381851,-33.6461 12.39027,-7.62433 24.75447,-15.29577 37.17078,-22.87297 14.18493,-8.65652 28.39266,-17.27188 42.63249,-25.82789 29.75238,-17.87672 63.94136,-37.83785 93.43313,-56.18316 34.16749,-21.25384 38.91168,-24.8762 69.72501,-45.82352 -9.25147,-13.06438 24.87703,-9.06047 24.6079,-19.95862 -0.0722,-2.9244 -4.20729,-4.44162 -6.96156,-4.82652 -2.66503,-0.37243 -5.16896,1.62098 -7.61778,2.78909 -6.38133,3.04398 -16.6355,9.4893 -22.62657,13.12948 -3.6263,2.25626 -7.2495,4.51805 -10.87889,6.76881 -8.80775,5.46209 -14.27867,8.91424 -23.527,14.12768 -44.50322,25.08723 11.45812,-7.35679 -45.41157,25.23394 -12.16697,6.97261 -24.24822,14.10977 -36.37233,21.16466 -49.19951,29.40258 -96.91428,61.59747 -142.35052,97.11037 -24.281658,18.97851 -49.108137,39.73001 -70.829711,62.10998 -6.556195,6.75492 -12.301655,14.33028 -18.452482,21.49543 -3.8686313,-3.58939 -11.36217344,19.42918 -4.6572924,21.70254 13.3234254,4.51744 31.7686414,-8.32796 41.0406114,-13.84937 15.445476,-9.19768 68.902974,-44.9961 79.133224,-51.78236 55.24671,-39.03004 110.52348,-78.11914 163.66173,-120.31534 19.86043,-15.77083 48.95085,-39.78617 68.12183,-58.91375 4.16149,-4.15208 7.6548,-8.98857 11.4822,-13.48286 -0.50507,-1.01696 -0.45463,-2.78618 -1.51519,-3.05086 -14.06795,-3.51098 -14.78858,-0.52905 -26.27822,7.75082 -7.42974,5.35416 -15.05394,11.57346 -21.87917,17.82074 -2.02224,1.851 -3.89977,3.8703 -5.84965,5.80544 -2.35714,3.42597 -5.36939,5.70455 2.88113,8.81419 1.61126,0.60729 3.16711,-1.36773 4.73264,-2.09564 4.00594,-1.86264 8.04171,-3.66087 11.98072,-5.67556 16.94866,-8.66874 20.33562,-11.07898 37.29125,-21.1794 16.9272,-10.2679 33.86525,-20.70255 49.60526,-32.93794 2.23784,-1.73958 4.47238,-3.51263 6.46255,-5.55883 0.55491,-0.57053 1.60488,-1.59438 1.0634,-2.17904 -1.93744,-2.0919 -4.78936,-2.95305 -7.18405,-4.42958 -2.0839,1.07105 -4.22811,2.02076 -6.25171,3.21315 -5.11502,3.01397 -14.33433,9.58645 -18.80003,12.58478 -4.83311,3.24501 -9.66453,6.49475 -14.5653,9.62522 -13.37695,8.54482 -34.72898,21.45296 -47.53032,29.26209 -11.11956,6.76901 -22.28785,13.45007 -33.35868,20.30706 -22.75782,14.09559 -58.57156,36.82004 -80.39425,51.34576 -29.00088,19.30371 -54.84122,37.0983 -82.34896,58.55307 -10.13111,7.90179 -19.80715,16.43072 -29.71071,24.64608 0.1511,11.20662 -23.538748,15.29136 -25.16285,28.03477 -0.385099,3.02166 1.709775,7.61351 4.602139,7.75718 6.752089,0.33539 13.080881,-3.76883 19.294831,-6.57018 20.76913,-9.36304 51.159,-28.20929 69.51877,-39.04091 15.236,-9.72833 30.54385,-19.333 45.708,-29.18499 16.19975,-10.52483 32.28738,-21.24008 48.38107,-31.94378 37.66805,-25.05254 53.59015,-35.37852 89.07715,-61.41348 10.13226,-7.43352 20.18927,-14.99033 30.01262,-22.87012 5.96508,-4.78489 11.55275,-10.07002 17.32913,-15.10503 1.75563,-2.31569 6.05904,-4.10388 5.26689,-6.94707 -0.91505,-3.2843 -5.31778,-4.90101 -8.56852,-4.90324 -3.18273,-0.002 -22.97091,12.38874 -23.65332,12.82309 -6.56088,4.17605 -23.38442,15.90716 -29.40348,20.0693 -5.4716,4.00785 -10.95467,7.99838 -16.4148,12.02354 -5.88227,4.33637 -11.65135,8.84527 -17.61226,13.06092 -20.4562,14.46697 -29.77921,19.76572 -51.56517,34.3153 -26.75676,17.86929 -41.89852,28.66846 -68.6841,47.38 -33.02005,23.3836 -64.97332,48.42236 -95.40663,75.4242 -7.905446,7.01407 -15.625088,14.25828 -23.336089,21.50834 -6.620911,6.22514 -13.274087,12.4203 -19.657204,18.91495 -4.741855,4.8247 -9.133526,10.01691 -13.700289,15.02536 -2.162804,3.20145 -6.896986,5.69922 -6.488412,9.60432 0.392872,3.75503 4.676918,7.56366 8.25431,7.27393 8.181724,-0.66264 15.421444,-5.99648 22.794711,-9.78859 12.119931,-6.23336 23.845802,-13.28893 35.604793,-20.24664 51.64286,-30.55669 50.59183,-30.85275 102.4373,-65.22995 84.47702,-55.25635 29.47008,-19.08284 112.21332,-73.96177 16.59047,-11.00352 33.29194,-21.82277 49.79666,-32.96832 16.37555,-11.05831 46.55433,-31.77665 63.77513,-45.43091 3.9165,-3.10536 7.43672,-6.72912 11.15507,-10.09368 -4.0412,-2.11557 -8.76323,-4.99327 -13.50859,-3.9735 -4.73442,1.01743 -8.66657,4.5132 -12.87684,7.00974 -6.32725,3.75183 -17.1021,10.92211 -23.21264,15.66213 -2.24359,1.74038 -4.29223,3.74343 -6.43834,5.61513 -1.09572,1.25815 -6.63859,7.7121 -7.81387,8.6864 -6.66508,5.52532 -20.40695,13.2192 -26.23301,16.67676 -65.8358,39.07107 15.6692,-9.73403 -67.45017,40.19164 -43.24228,27.42374 -47.66377,29.56101 -89.85345,59.00011 -13.91892,9.71234 -27.76301,19.55043 -41.39259,29.70749 -21.48263,16.00929 -43.15977,32.82304 -62.635079,51.59483 -5.966432,5.7509 -11.258602,12.23219 -16.887903,18.34828 1.667249,-0.87172 -13.661242,15.93479 -8.210518,20.75422 10.274105,9.08415 23.937686,0.84025 33.20088,-3.39062 21.63464,-9.8814 38.61347,-20.90145 59.32038,-33.25606 12.47451,-7.97228 24.89663,-16.03615 37.42352,-23.91685 86.61247,-54.48816 4.04805,-1.52532 94.5433,-59.42826 44.90885,-28.7347 46.74971,-30.3003 90.10865,-57.97986 11.99867,-7.65973 24.0493,-15.22884 36.07395,-22.84325 0.0717,-0.0447 42.66506,-26.54242 47.66014,-29.75675 3.25105,-2.09205 6.8302,-3.77222 9.61106,-6.5146 0.51781,-0.51066 -1.17449,-0.84737 -1.81083,-1.17771 -8.87179,-4.60564 -4.66225,-3.79387 -15.07816,1.62494 -4.26174,2.33752 -8.53839,4.64517 -12.78522,7.01258 -5.6069,3.12557 -11.16805,6.34158 -16.77549,9.46606 -18.53346,10.32694 -36.1343,19.70174 -54.52756,30.59629 -21.06635,12.47786 -57.31311,35.49643 -77.28602,48.06144 -41.76968,27.23309 -82.56313,56.26732 -120.42249,89.31107 -13.74884,12.00003 -32.56781,29.38271 -44.24509,44.83386 -2.86403,3.78963 -4.69216,8.33134 -7.03824,12.49702 0.68671,2.5386 -0.35757,6.91771 2.06012,7.61579 15.45255,4.46179 39.75698,-10.08753 50.33904,-15.5515 13.9848,-7.22094 27.68238,-15.05639 41.27212,-23.07005 29.57114,-17.43763 62.81777,-39.22468 91.7062,-57.80756 35.08365,-23.41269 70.99909,-45.50493 105.26025,-70.27024 5.0897,-3.67904 10.07352,-7.52459 14.95321,-11.50658 1.79203,-1.46236 5.58257,-2.49092 5.04026,-4.80878 -0.65158,-2.78495 -4.76221,-2.78661 -7.14333,-4.17991 -2.53249,1.11212 -5.13886,2.05358 -7.59749,3.33635 -4.02423,2.09962 -7.89796,4.50522 -11.82606,6.79778 -21.19268,12.36868 -11.18038,6.72041 -34.49816,20.57089 -18.10418,10.75366 -36.27703,21.37864 -54.40176,32.09386 -10.87642,6.84192 -21.85238,13.51141 -32.62927,20.52578 -14.52083,9.45119 -43.89956,29.55664 -58.42229,40.23552 -13.38236,9.84035 -25.78885,19.51748 -37.8522,30.99596 -3.54875,3.3767 -6.74967,7.13779 -10.12451,10.7067 1.54263,0.99075 -9.12707,9.01263 -6.33918,12.84069 6.9126,9.49173 14.39496,3.54279 22.63997,-0.0316 8.92603,-3.86963 17.73136,-8.05636 26.42435,-12.47516 12.29623,-6.25037 24.35035,-13.01554 36.52552,-19.52332 45.79579,-24.0465 90.41876,-50.5365 133.87874,-78.9751 9.55327,-6.25131 19.01179,-12.6687 28.32694,-19.30642 15.28066,-10.8886 11.8852,-7.22452 18.82242,-16.36342 -3.43552,-1.15195 -6.74309,-4.03401 -10.30655,-3.45586 -6.6611,1.08072 -44.00057,21.52553 -45.32333,22.24468 -19.9799,10.86262 -52.15357,29.14458 -71.04388,40.46432 -13.45873,8.06494 -26.71622,16.49663 -40.07433,24.74494 -24.83338,16.68888 -41.7861,27.21732 -64.71957,45.5735 -6.07004,4.85853 -12.02351,9.92802 -17.47605,15.5399 -2.5084,2.5817 -6.99701,5.28624 -6.26913,8.89916 3.03067,15.04314 25.53303,1.10716 27.7661,0.29933 40.74726,-17.71354 79.93453,-39.10441 118.00727,-62.4497 24.76643,-15.18617 54.41596,-34.88328 78.25238,-52.36058 8.07189,-5.91846 15.79289,-12.35054 23.68933,-18.5258 3.84846,-3.76727 8.13971,-7.08836 11.54538,-11.3018 5.30248,-6.56014 -6.91408,-7.88518 -9.7807,-7.65565 -3.58085,0.28673 -6.50178,3.22695 -9.63832,5.06838 -5.46836,3.21042 -9.3188,6.15444 -14.30724,9.78559 -3.86994,1.2564 3.87338,2.11984 5.67686,1.3644 2.18713,-0.91614 3.1211,-3.71126 4.64541,-5.59976 2.30742,-2.85869 8.75654,-10.96422 10.82026,-14.21212 1.02497,-1.6131 1.72894,-3.42828 2.59342,-5.14242 -1.08304,-1.95568 -1.10485,-5.6999 -3.24911,-5.86703 -7.58978,-0.59159 -39.36213,16.96156 -39.74613,17.17089 -11.8103,6.43823 -23.42747,13.26803 -34.97865,20.20786 -30.19386,18.14016 -51.55759,32.29944 -81.26586,51.49986 -31.60541,20.98897 -42.054,27.05733 -70.82295,49.12801 -5.85182,4.48936 -12.30633,8.41268 -17.0443,14.17728 -0.89248,1.08588 1.94466,2.58214 3.30782,2.53565 6.07774,-0.20724 12.40535,-0.69864 17.97786,-3.26147 10.86751,-4.99802 20.40853,-12.72375 30.61278,-19.08563 46.4132,-31.07555 92.81172,-62.2545 137.87747,-95.48108 24.85946,-18.32866 50.50704,-38.06521 73.86334,-58.69929 6.29297,-5.55951 12.12325,-11.67508 18.18487,-17.51262 1.98168,-2.90952 6.34183,-5.17267 5.94504,-8.72855 -0.37507,-3.36129 -4.41122,-5.94592 -7.61424,-6.23023 -3.63929,-0.32303 -6.77141,2.90948 -10.02086,4.6649 -9.04789,4.88786 -17.04862,10.51806 -25.60324,16.29294 -4.55411,3.07429 -9.09419,6.17153 -13.6413,9.2573 -37.3831,21.10063 -75.1692,41.41154 -111.95025,63.67789 -30.10222,18.22316 -34.12798,21.30596 -62.80143,40.33406 -8.68597,6.27564 -29.38629,20.46738 -38.42391,29.30649 -1.33515,1.30583 -4.37781,4.13482 -2.74176,4.97988 13.49753,6.97177 26.9672,-5.79057 36.86104,-11.98502 10.89253,-6.81971 21.50879,-14.11713 32.26319,-21.1757 45.57296,-29.22658 89.49396,-61.18525 133.05984,-93.58925 18.52016,-13.77517 40.46622,-30.0462 58.49262,-45.37496 3.9119,-3.32648 7.50411,-7.04936 11.25616,-10.57404 0.0934,-0.9073 1.06181,-2.32757 0.28014,-2.72189 -3.29432,-1.6618 -7.09302,-3.18895 -10.69195,-2.53028 -2.24221,0.41036 -25.19167,15.3645 -25.3782,15.48038 -17.23347,10.70592 -20.01275,12.0599 -38.63983,22.74048 -45.44518,25.13971 -91.44331,49.15641 -136.20029,75.6617 -30.1518,17.85606 -37.39691,22.88743 -65.96185,41.30689 -16.8482,11.60027 -26.28762,17.3844 -41.26024,29.90092 -2.16279,1.80799 -7.68669,3.65897 -6.02812,5.98382 2.24209,3.14278 7.67189,2.63279 11.14278,1.18549 7.41168,-3.09054 51.96596,-38.68264 52.27595,-38.92394 13.54185,-10.52242 27.0147,-21.14397 40.62554,-31.56724 15.53437,-11.89633 31.24241,-23.5395 46.80824,-35.39016 36.15227,-27.52365 72.25838,-55.17225 107.60247,-83.84416 4.85678,-3.93991 9.62236,-8.00288 14.43355,-12.00432 1.60308,-1.60399 5.16883,-2.51449 4.80926,-4.81196 -0.40929,-2.61513 -3.83007,-3.75232 -6.25872,-4.44931 -2.86852,-0.82322 -12.54524,5.15329 -13.18091,5.51433 -6.91893,3.92968 -13.66118,8.19484 -20.49311,12.28976 -16.73729,9.02785 -33.88026,17.20093 -50.61666,26.22859 -13.74312,7.41308 -27.36965,15.06598 -40.94555,22.81311 -38.53345,21.98929 -62.84289,36.25394 -100.30392,60.76688 -15.79914,10.3383 -31.22799,21.29114 -46.84199,31.93671 -26.12225,19.59528 -44.10728,31.72327 -67.362764,53.62962 -5.483243,5.16514 -10.781265,10.6346 -15.312617,16.73761 -4.681074,6.30465 -6.690701,14.7225 6.23341,14.61276 4.870533,-0.0414 8.943099,-4.06634 13.414648,-6.09951 8.645458,-5.48393 17.541363,-10.55224 25.936373,-16.45177 11.76813,-8.26997 23.17897,-17.09861 34.50677,-26.02422 32.00817,-25.22049 52.60221,-43.53295 84.07888,-70.21953 72.05786,-61.09217 21.76458,-17.70073 90.27182,-77.33347 25.7783,-22.26961 50.39887,-45.95011 74.66634,-70.0062 2.83076,-2.80611 5.64989,-5.62561 8.43749,-8.47923 3.91346,-4.00617 4.11257,-2.17595 3.59454,-4.64405 -1.93856,-1.42952 -3.53028,-3.64091 -5.81566,-4.28854 -1.22751,-0.34786 -2.32785,1.07743 -3.47413,1.65599 -2.11647,1.06822 -4.18514,2.24054 -6.31286,3.28369 -3.98346,1.95298 -8.03654,3.74608 -12.01807,5.70343 -15.74682,7.74122 -29.35296,14.9424 -45.22645,23.17611 -41.96687,21.90332 -82.50447,46.62602 -122.61314,72.04701 -31.79212,20.14995 -59.82968,38.23433 -90.73481,59.94662 -14.653,10.29441 -28.978496,21.09647 -43.46774,31.6447 -20.556714,16.30873 -46.553288,35.70903 -65.588065,54.86579 -3.9609243,3.98631 -11.2807254,7.79454 -10.3172764,13.47382 0.781167,4.60477 8.8902184,4.33657 13.0695444,2.75006 12.766105,-4.84611 65.479132,-49.91033 67.452527,-51.52132 18.58562,-16.71132 37.65411,-32.845 55.75687,-50.13394 19.38314,-18.51178 38.12864,-37.76211 56.65386,-57.22335 32.08425,-33.70537 61.80201,-67.40248 91.16794,-103.60797 9.35733,-11.53673 18.14028,-23.57652 27.21609,-35.35994 5.54903,-7.2045 11.10559,-14.40254 16.65839,-21.60381 3.57531,-3.164483 6.56317,-7.263073 10.72593,-9.493465 4.96798,-2.661813 13.07924,0.40753 17.77082,1.050997 5.3486,0.733571 10.71495,1.464885 16.10614,1.640745 21.45739,0.69994 21.33983,-0.25413 41.63494,-3.621918 13.05083,-4.027596 19.03476,-4.902808 30.46799,-11.68491 2.69226,-1.597026 5.49872,-3.291437 7.44036,-5.822544 1.08312,-1.411952 2.50257,-4.254496 1.10632,-5.318881 -11.75542,-8.961308 -23.56579,-1.224121 -35.42085,2.199389 -10.29865,4.146954 -20.73902,7.923019 -30.89595,12.440861 -24.59555,10.940192 -55.92689,27.029716 -79.11505,40.307176 -24.75,14.17177 -53.86309,32.55843 -77.07163,49.70567 -9.773,7.22061 -18.96038,15.28226 -28.44058,22.92339 -1.93599,1.97409 -24.98185,22.48757 -25.87493,31.47837 -0.3489,3.51248 2.15615,8.42674 5.48206,8.88457 14.2845,1.96638 45.28798,-15.51001 54.30554,-20.26437 14.88705,-7.84893 29.43837,-16.3848 44.15754,-24.5772 48.72918,-28.26771 96.14817,-59.05691 141.88404,-92.415773 9.46528,-6.903792 18.80103,-14.011707 27.95054,-21.372316 14.61855,-11.760348 11.69415,-7.590359 16.97816,-17.309473 -3.45802,-1.03902 -6.81051,-3.625077 -10.37406,-3.117057 -2.80251,0.399525 -24.39078,14.34932 -25.19083,14.873966 -12.30754,8.070875 -18.69743,12.927981 -30.97579,21.600222 -6.62152,4.676798 -13.27075,9.309971 -19.90611,13.964951 -8.595,5.89777 -17.18999,11.79554 -25.78498,17.6933 -0.99078,1.02453 12.7703,15.77744 13.76108,14.75292 v 0 c 7.90498,-6.63779 15.80996,-13.27557 23.71494,-19.91335 12.11009,-9.95753 21.72297,-18.08457 34.02987,-27.433235 4.64815,-3.530882 9.44966,-6.833013 14.13149,-10.314215 1.16337,-0.865024 21.30685,-15.561232 22.70849,-18.721533 1.45954,-3.290845 -0.67889,-7.228692 -1.01834,-10.843038 -12.59428,-0.118555 -8.19336,-0.951415 -26.07167,7.449412 -10.88822,5.116256 -21.588,10.688126 -32.12515,16.563034 -49.21194,27.437755 -96.26758,58.972635 -141.88655,92.539845 -13.10995,9.8931 -26.24011,19.75661 -39.32985,29.67933 -8.76913,6.64746 -17.88239,12.82823 -26.24655,20.03104 -3.60869,3.10763 -6.8843,6.73636 -9.52995,10.77797 -0.89324,1.36456 -2.24635,5.39014 -0.73972,4.91042 11.97317,-3.81232 16.41502,-23.46474 30.98917,-22.28247 9.97783,-6.56888 19.8844,-13.25929 29.93349,-19.70664 12.18987,-7.82085 24.48845,-15.4527 36.77971,-23.09563 47.01534,-29.23492 94.56859,-57.49708 142.28994,-85.43098 5.8161,-3.532628 12.38145,-5.959026 17.44828,-10.597883 1.9036,-1.74281 1.77721,-4.984157 2.38654,-7.561554 0.069,-0.291913 -0.1359,-0.869746 -0.41177,-0.791496 -2.63239,0.746657 -5.05525,2.160691 -7.63942,3.075161 -12.67813,4.486439 -15.5529,4.869107 -29.38645,8.44576 -11.6074,1.990847 -20.64,4.005414 -32.22905,4.440889 -39.20593,1.473219 7.8196,-1.768269 -32.9491,-1.153798 -4.52835,0.06826 -9.18208,0.03617 -13.52095,1.402641 -5.68993,1.791971 -10.76179,5.293021 -16.14268,7.939531 -7.58833,5.891836 -15.46753,11.389516 -22.76499,17.675519 -24.40174,21.01961 -55.95721,52.64458 -77.6392,74.66642 -17.5933,17.86906 -35.03581,35.90459 -52.30246,54.12345 -56.13634,59.23209 -50.77027,54.29476 -102.933207,114.15889 -11.410989,13.4252 -23.141925,26.55636 -34.232967,40.27559 -6.486793,8.02393 -14.759386,15.1346 -18.4727653,24.91951 -1.620665,4.27053 -0.176232,11.90367 4.0343793,13.12626 5.747129,1.66873 11.359315,-4.05469 16.545337,-7.15073 10.263491,-6.12728 63.876457,-44.68919 69.81533,-48.9214 33.740873,-23.90993 54.048603,-38.54199 88.326533,-61.84947 65.67773,-44.65797 22.46276,-14.46715 87.0753,-57.42866 34.94235,-23.23349 41.07696,-27.93841 73.78625,-51.1709 8.09462,-5.86351 16.16415,-11.76561 24.28387,-17.59051 20.04519,-14.37998 10.74622,-7.19389 26.71633,-19.40958 1.89554,-1.44992 3.80091,-2.88754 5.64745,-4.40593 1.20232,-0.98864 3.39843,-1.50844 3.49461,-3.11147 0.15343,-2.55697 -1.92282,-4.70725 -2.88424,-7.06088 -0.79422,9.8e-4 -1.61069,-0.19346 -2.38267,0.003 -5.26208,1.33954 -13.60734,5.67326 -17.47162,7.83069 -30.41363,16.97998 -58.61428,38.02348 -86.25009,59.50706 -14.91242,12.26207 -30.08364,24.18299 -44.73725,36.7862 -15.5551,13.37856 -30.68947,27.29221 -45.86841,41.14149 -14.08958,12.85535 -28.02056,25.90274 -41.93374,38.96935 -29.70491,27.89749 -59.22012,56.06727 -87.460016,85.61784 -3.063416,2.68153 -7.417669,4.28816 -9.190248,8.04462 -1.151726,2.44074 -0.683138,6.7543 1.621065,7.99603 2.32013,1.2503 4.88106,-1.96527 7.183511,-3.25129 6.521325,-3.64246 12.902381,-7.5604 19.256615,-11.51672 11.359153,-7.07252 64.994133,-41.62544 72.209283,-46.26417 15.85469,-10.19009 31.77242,-20.27221 47.56406,-30.57027 43.42174,-28.31623 54.44172,-35.82836 96.36314,-65.20498 12.62076,-8.84404 25.24553,-17.68495 37.71153,-26.76903 9.95548,-7.25465 32.93754,-24.90402 44.6795,-33.88979 3.51525,-2.49702 7.03049,-4.99403 10.54573,-7.49103 2.92027,-1.99471 5.86889,-3.94413 8.7608,-5.98412 2.52756,-1.78298 5.15963,-3.43097 7.49556,-5.48334 1.98758,-1.74629 5.41916,-3.13496 5.4157,-5.86057 -0.004,-2.86454 -2.86364,-5.46764 -5.43128,-6.41471 -2.77571,-1.0238 -5.83426,0.78898 -8.7514,1.18347 -6.31695,2.54883 -12.82101,4.6335 -18.95088,7.6465 -24.00231,11.79777 -48.67484,27.43665 -70.46423,42.75221 -45.66205,32.09542 -88.59518,68.33169 -128.21079,108.35588 -9.04082,9.59811 -18.51137,18.76774 -27.12245,28.79436 -1.60453,1.8683 -25.80117,23.34242 -12.81003,33.68473 2.70241,2.15141 6.76603,-1.03351 9.91694,-2.34431 9.15743,-3.80956 39.19609,-20.93095 45.2444,-24.29543 18.79372,-10.55207 49.78372,-27.85932 67.88803,-38.43276 12.69793,-7.41597 25.30347,-15.0068 37.89168,-22.62733 12.13746,-7.34766 24.30044,-14.65384 36.284,-22.2764 10.70546,-6.80958 21.19452,-13.98942 31.77384,-21.01413 8.45898,-5.61679 16.89396,-11.27354 25.34094,-16.9103 15.50862,-10.70547 22.21064,-15.09202 36.76911,-25.96814 4.40798,-3.29305 8.8161,-6.59331 13.06848,-10.10587 6.95263,-5.74304 14.48274,-8.9219 10.2007,-20.1975 -0.62659,-1.64994 -3.31806,-0.65202 -4.97709,-0.97802 -5.24506,1.9421 -10.66305,3.42845 -15.73515,5.82631 -21.59956,10.21125 -46.05747,25.4321 -65.57646,38.34248 -45.11251,29.83862 -88.46564,62.68761 -129.06442,99.03408 -0.7802,0.69274 -42.27791,36.44759 -46.46655,43.44243 -2.37202,3.96118 -3.10338,9.72062 -1.26574,13.98499 0.97215,2.25596 4.83295,0.27518 7.03589,-0.59492 6.11653,-2.41583 11.79071,-5.93388 17.57711,-9.12643 8.47682,-4.67692 16.80252,-9.6514 25.20377,-14.4771 57.64333,-35.07409 115.64829,-69.88769 169.71103,-110.94104 4.1349,-2.9358 21.8062,-15.43685 26.09683,-18.65878 3.82917,-2.8754 7.67313,-5.74239 11.31029,-8.88199 2.48054,-2.14121 6.37518,-3.62647 7.0145,-6.93598 0.57312,-2.96675 -1.36869,-7.14419 -4.13476,-7.97112 -3.47666,-1.03935 -6.84549,2.44354 -10.26823,3.6653 -7.56396,4.12823 -15.26734,7.9848 -22.69189,12.38466 -44.64839,26.45907 -87.11041,56.75684 -128.433,88.58521 -15.27881,11.76836 -30.37403,23.805 -45.28659,36.08313 -12.52536,10.31263 -24.67658,21.11933 -37.01487,31.67899 -8.3643,8.14538 -35.08186,28.08599 -35.50519,46.10113 -0.079,3.35958 6.03323,3.53652 9.16858,2.90734 7.72055,-1.54933 14.86606,-5.49691 21.92015,-9.14609 24.06411,-12.44871 51.35711,-31.10907 73.77489,-45.67608 34.10992,-22.86197 46.13891,-30.30363 78.87724,-54.65242 10.63894,-7.9126 21.18329,-15.97843 31.45254,-24.41516 2.81243,-2.31055 21.55681,-15.00241 24.08674,-25.13443 0.40304,-1.6141 -0.50249,-3.2957 -0.75374,-4.94356 -5.25064,5.91873 -10.39063,12.09769 -14.43654,19.02396 -3.90125,6.67861 -6.65205,9.86838 -0.10985,17.02587 1.00172,1.09593 2.88627,-0.13682 4.3294,-0.20524 7.37014,-3.54408 8.05294,-3.53965 15.49062,-8.82143 2.84127,-2.01768 6.67727,-3.26569 8.23653,-6.47898 9.42084,-19.41433 -19.33271,-5.47538 -20.13435,-3.7417 -9.0577,4.71511 -18.22959,9.1945 -27.17311,14.14535 -27.42097,15.1794 -54.45385,31.70528 -80.91363,48.62615 -14.85035,9.49671 -29.60088,19.17046 -44.20735,29.07763 -20.23558,13.72526 -43.36005,30.55148 -63.60771,45.14435 -4.36702,3.53567 -10.18132,5.68847 -13.10108,10.60701 -1.48402,2.49996 -0.95382,7.60678 1.6576,8.67039 3.21729,1.31036 6.48415,-2.51377 9.59278,-4.08825 6.98106,-3.53581 13.84136,-7.33598 20.64894,-11.22876 28.40189,-16.24112 38.67893,-23.14853 67.68978,-41.34915 35.31842,-23.18319 40.9811,-26.74912 75.38406,-49.90577 10.33117,-6.95392 20.71168,-13.8304 30.91441,-20.99144 1.38194,-0.96995 35.7646,-24.99861 39.36066,-31.17105 1.84161,-3.16099 -0.58772,-7.39078 -0.88159,-11.08618 -2.54323,-0.013 -5.15415,-0.65285 -7.62969,-0.039 -15.50241,3.84407 -39.09437,15.36859 -51.60137,21.77881 -46.04796,23.60099 -90.26173,51.11766 -132.47179,81.62785 -40.03304,28.91874 -22.62257,15.61011 -54.79134,41.0774 -3.09349,2.44904 -7.16118,3.94178 -9.27401,7.35613 -0.98271,1.58804 0.23808,3.9926 1.30809,5.5168 2.0373,2.90206 7.74072,-25.23737 8.14152,-6.61268 3.87704,-2.70322 7.70445,-5.48708 11.63114,-8.10966 11.89559,-7.94485 29.39958,-18.84692 40.93133,-26.1475 22.62907,-14.32613 37.12454,-23.37476 59.67655,-38.50179 10.59825,-7.1089 21.0557,-14.44789 31.58355,-21.67183 38.20351,-27.35925 16.9246,-12.08277 50.8398,-36.49921 10.53881,-7.58716 21.86075,-15.58695 32.22819,-23.53998 3.6198,-2.7768 7.29738,-5.4889 10.70607,-8.54757 2.49316,-2.23716 4.64009,-4.86974 6.96014,-7.30461 -1.49825,-2.71274 -1.8358,-6.72061 -4.49477,-8.13822 -2.62025,-1.39695 -5.92388,0.24018 -8.75155,1.07607 -6.40449,1.89323 -12.67062,4.32989 -18.7939,7.06664 -39.07809,17.46563 -75.4354,40.86608 -112.03614,63.274 -39.24926,25.79277 -51.43068,33.20055 -89.41096,60.49996 -12.49316,8.9798 -24.84582,18.17991 -37.05419,27.58391 -18.64452,14.36167 -22.88674,13.13416 -29.85923,30.04909 -0.20679,0.50167 0.23165,1.06623 0.34749,1.59934 31.84466,-24.72973 64.27859,-48.57525 96.72967,-72.41146 13.77476,-10.11793 27.49985,-20.31165 41.3455,-30.32174 13.88566,-10.03902 27.89773,-19.88284 41.84659,-29.82426 13.10506,-9.36982 26.19083,-18.76963 39.31519,-28.10946 11.32219,-8.05733 22.72617,-15.98711 34.02427,-24.08186 9.5674,-6.85475 19.03884,-13.85686 28.57103,-20.76579 7.09265,-5.14075 14.20229,-10.25546 21.30342,-15.3832 5.17261,-3.68024 10.36668,-7.32727 15.51783,-11.04074 3.95056,-2.84795 7.85777,-5.76203 11.78665,-8.64305 4.39619,-3.72163 13.80287,-8.67398 10.35282,-17.51861 -0.8996,-2.30624 -4.54521,-1.8623 -6.91003,-1.73481 -4.40266,0.23733 -8.74128,1.43816 -12.95405,2.80563 -18.98767,6.16346 -35.35672,14.7549 -53.61627,23.34417 -35.04252,18.56543 -47.85541,24.7572 -83.08053,46.12122 -32.95643,19.98806 -64.45514,40.94507 -96.00601,63.30437 -14.51245,10.28461 -28.6933,21.07867 -43.03811,31.6208 -11.74937,8.63471 -23.49628,17.27316 -35.24443,25.90974 -20.88899,15.16299 -32.95947,24.00072 -53.269073,38.48918 -7.186396,5.12663 -17.184283,6.85224 -16.154311,17.44549 0.09091,0.93501 1.25396,-1.33808 1.880939,-2.00712 3.49282,-2.85634 6.98564,-5.71268 10.47846,-8.56902 6.556253,-4.71543 13.058495,-9.5152 19.668765,-14.14628 9.69038,-6.78896 19.49178,-13.40064 29.23072,-20.11214 12.39157,-8.53954 24.73694,-17.15365 37.16083,-25.64098 23.64401,-16.15229 63.48581,-42.70443 86.57677,-59.03425 14.48437,-10.24329 28.69486,-20.90949 43.04229,-31.36423 19.24794,-15.15223 41.89193,-32.44883 60.69709,-48.91781 5.23769,-4.587 10.25644,-9.45022 15.19745,-14.38866 2.59144,-2.59009 4.92659,-5.45039 7.3842,-8.18128 1.15359,-1.28188 2.14476,-2.74717 3.44936,-3.85699 1.23486,-1.0505 2.72989,-1.70721 4.09484,-2.56082 10.76989,-5.73669 21.32948,-11.83883 31.28282,-19.0709 6.58223,-4.78263 17.43143,-10.84888 16.37599,-21.92738 -0.2158,-2.26518 -4.14227,-1.3073 -6.21341,-1.96095 -5.27483,1.51901 -10.70408,2.53544 -15.8245,4.55702 -22.52752,8.8941 -52.02777,24.61454 -72.06236,36.0463 -17.51857,9.99613 -34.79516,20.46554 -51.92584,31.18103 -51.18863,32.01921 -62.09176,40.58845 -111.98453,75.44456 -17.11716,12.50822 -34.48715,24.64134 -51.35148,37.52467 -17.44176,13.32445 -55.88688,44.51421 -74.483962,61.43613 -5.085986,4.62785 -11.235668,8.57198 -14.49513,14.76193 -1.245339,2.36499 0.165917,7.37775 2.726478,7.58755 3.675283,0.30116 6.065962,-4.41237 9.098943,-6.61857 5.239321,-4.23253 10.514891,-8.41577 15.717963,-12.69758 19.306084,-15.88772 24.795266,-21.14841 45.196768,-36.99333 9.48469,-7.36633 19.15335,-14.46654 28.76393,-21.64969 15.72576,-11.75376 53.01683,-39.33353 68.30308,-50.65091 11.54312,-8.80123 23.08774,-17.60028 34.62936,-26.40369 10.43839,-7.96193 20.94827,-15.82111 31.31066,-23.89234 27.21825,-21.20022 53.48451,-43.71845 80.92114,-64.61303 47.40237,-35.87901 -15.63922,11.67212 28.20537,-20.90283 0.18107,-0.13453 19.72436,-14.40253 20.55297,-17.22964 0.90397,-3.08427 -0.70565,-7.53026 -3.44557,-8.97812 -2.89103,-1.5277 -6.32544,1.42903 -9.48815,2.14356 -7.18411,3.376 -14.51198,6.43148 -21.55232,10.12803 -22.42039,11.77185 -56.40884,32.10124 -76.63035,45.15565 -16.34614,10.55258 -32.36953,21.65211 -48.40867,32.71461 -15.86089,10.93955 -31.62084,22.04273 -47.28724,33.28868 -14.55252,10.44635 -28.91037,21.19022 -43.36556,31.78534 -12.11172,9.4223 -47.06444,35.87398 -60.608313,48.70352 -3.163504,2.99666 -6.524078,6.1991 -8.164093,10.33344 -0.894542,2.25506 -1.094065,6.85177 1.20025,7.22181 3.884996,0.6266 7.206823,-3.32971 10.658336,-5.30917 7.41344,-4.25166 14.60799,-8.91342 21.912,-13.37013 10.79473,-7.06055 21.67273,-13.98189 32.3842,-21.18165 30.59134,-20.56208 52.20984,-36.04908 82.48424,-57.60286 13.5672,-9.65914 27.09094,-19.38581 40.64895,-29.05925 12.12733,-8.65267 24.316,-17.21025 36.40704,-25.91906 10.51534,-7.57388 20.94062,-15.28545 31.41093,-22.92818 8.35603,-6.39942 16.78217,-12.69859 25.06809,-19.19827 10.9309,-8.57446 21.45095,-17.34916 32.02502,-26.36657 3.20586,-2.7339 6.34388,-5.55541 9.55705,-8.27979 2.35133,-1.99366 4.78686,-3.87566 7.13516,-5.87328 1.72415,-1.46667 3.38669,-3.01185 5.08004,-4.51778 -0.80558,-2.54602 -0.89816,-5.48283 -2.41676,-7.63809 -0.57968,-0.82272 -1.98285,-0.2157 -2.91812,0.0666 -2.86403,0.86439 -5.63726,2.0569 -8.3575,3.3365 -18.08318,8.50633 -34.99861,19.50907 -51.80695,30.44815 -14.64058,9.89093 -21.20147,13.82474 -34.65242,24.70938 -3.29206,2.66397 -6.36092,5.62127 -9.49195,8.49239 -0.88939,0.81555 -2.75503,1.33897 -2.56617,2.56472 0.37331,2.42273 1.90465,4.84581 3.90279,6.10991 1.05979,0.67046 2.29196,-0.97725 3.43795,-1.46587 2.39917,-1.47217 4.85544,-2.8457 7.19751,-4.41648 7.36908,-4.94231 15.88602,-11.35251 22.59154,-17.06414 8.94127,-7.61598 14.7831,-9.59017 12.94693,-23.04683 -0.19964,-1.46317 -2.57887,-1.16937 -3.8683,-1.75407 -5.68011,2.48597 -11.55809,4.52047 -17.04034,7.45789 -24.7889,13.28213 -55.13308,33.51763 -77.32093,49.11805 -55.19503,38.80801 -108.15577,81.03128 -160.20459,124.34489 -13.729255,11.96716 -27.458504,23.9343 -41.187754,35.90146 -9.540724,8.25374 -19.103578,16.47919 -28.622172,24.76119 -6.197475,5.39235 -13.045307,10.06807 -18.525747,16.26163 -2.026096,2.28972 -2.579365,5.65908 -3.503085,8.63359 -0.172556,0.55567 -0.194058,2.02274 0.285387,1.7279 3.887063,-2.39048 7.197147,-5.69506 10.79572,-8.54258 7.340338,-5.55302 14.639251,-11.16726 22.021014,-16.65907 7.355816,-5.47251 72.909587,-53.57152 75.365567,-55.37876 55.15893,-40.58874 39.88764,-29.25883 94.72494,-70.55774 13.9106,-10.47631 27.81101,-20.9676 41.71651,-31.4514 19.8959,-15.01226 37.25818,-28.20398 57.03245,-42.83491 7.44745,-5.51036 20.73282,-15.35739 29.17806,-20.79721 7.11384,-4.58223 14.68066,-8.35314 21.76771,-12.98472 7.20391,-4.60196 15.17168,-9.29337 21.69867,-14.99996 2.54434,-2.22453 6.63762,-3.94664 6.99494,-7.40837 0.3207,-3.10691 -2.63678,-6.45698 -5.46628,-7.40118 -10.73829,-3.58333 -23.17701,16.57363 -32.1757,10.87928 -10.99387,5.43991 -22.12478,10.58284 -32.98161,16.31974 -32.81729,17.34112 -57.03312,31.85695 -88.86431,51.92328 -41.5913,26.21909 -82.19646,54.14154 -122.07018,83.15719 -46.122695,34.12936 -12.44727,8.93822 -51.94049,39.07455 -11.632608,8.87658 -13.461181,6.90747 -18.000118,17.07145 -0.37801,0.84648 -1.45151,3.03138 -0.609969,2.73165 1.656341,-0.58993 2.505565,-2.56865 3.758348,-3.85298 3.514981,-2.88375 6.946627,-5.88378 10.544945,-8.65123 12.256878,-9.42673 32.085386,-23.41955 43.923184,-31.5985 36.85036,-25.46059 74.52135,-49.54537 111.93303,-74.07074 13.78218,-9.19656 27.54737,-18.42142 41.34655,-27.58966 12.44333,-8.26741 24.97884,-16.38123 37.38085,-24.71719 10.6136,-7.1339 21.11975,-14.44354 31.66375,-21.69094 18.44457,-12.67782 23.93987,-16.1252 40.45805,-28.9132 3.62802,-2.80873 7.12341,-5.8026 10.68512,-8.70389 3.40627,-3.35201 10.35463,-7.34616 6.05986,-14.286933 -1.07174,-1.73205 -3.86967,-0.99843 -5.82999,-0.88349 -3.0008,0.17597 -5.98338,0.83797 -8.86271,1.74504 -15.02061,4.731983 -26.42,10.941423 -41.05382,17.877383 -10.27948,5.41563 -20.65013,10.6435 -30.83843,16.2469 -20.55905,11.30712 -52.58656,30.05808 -72.3288,42.38063 -26.42497,16.49372 -40.60435,26.41994 -65.75066,43.77453 -7.57301,5.22648 -15.11358,10.50487 -22.67037,15.75731 -5.68953,3.95695 -11.39786,7.88408 -17.06859,11.87085 -4.01871,2.82534 -7.96589,5.76294 -11.99922,8.56509 -2.81647,1.95675 -5.708123,3.79097 -8.5479,5.71002 -7.798832,5.27027 -15.504264,10.69555 -23.01499,16.41336 -1.799054,1.533 -10.112427,6.18969 -1.77704,10.11874 1.709944,0.80602 3.32061,-1.83644 4.90573,-2.88794 4.280943,-2.83976 8.477664,-5.81834 12.68352,-8.77988 10.853467,-7.64243 37.711,-26.91049 46.99043,-33.55423 10.25649,-7.18112 20.42621,-14.50156 30.76946,-21.54338 21.17709,-14.41763 47.58729,-31.3219 68.96323,-45.24452 32.65285,-21.26754 65.30245,-42.54917 97.5756,-64.4526 21.31503,-14.668213 21.11458,-14.315523 39.86458,-27.894073 3.59161,-2.600999 7.24627,-5.114032 10.71512,-7.89359 2.19146,-1.755991 5.4572,-2.917192 6.2443,-5.695804 2.7719,-9.785416 -2.63271,-9.069285 -7.60859,-10.08862 -4.05278,0.701052 -8.17588,1.045876 -12.15835,2.103156 -15.59806,4.141031 -31.43094,10.741775 -46.07484,17.392235 -35.16375,15.969451 -68.81441,35.274246 -102.38421,54.591166 -30.04094,18.48417 -44.66167,27.02576 -73.84434,46.7738 -10.80127,7.30927 -21.40687,14.93569 -32.01372,22.55408 -18.036103,12.95446 -35.95549,26.15166 -52.258772,41.50168 -2.398312,2.24088 -4.633357,4.2519 -7.251994,6.15551 -0.56024,0.40727 -1.12156,0.81311 -1.690983,1.206 -0.340923,0.23524 -1.256,0.31437 -1.039523,0.67801 0.705693,1.18543 2.034074,1.80072 3.051111,2.70107 -0.07472,0.61204 -0.809956,1.81712 -0.224163,1.8361 0.847203,0.0274 1.244373,-1.2135 1.897868,-1.78184 1.4544,-1.2649 2.904507,-2.5388 4.423787,-3.71612 11.545306,-8.94668 24.340671,-15.65954 36.711626,-23.21736 22.706823,-13.26158 32.931683,-19.12831 56.543283,-33.43031 49.44812,-29.95169 98.23261,-61.12471 146.46975,-93.187143 9.06496,-6.151871 18.21613,-12.165136 27.19489,-18.455604 6.45958,-4.525542 12.65579,-9.458702 19.11323,-13.987625 3.47778,-2.439148 7.13925,-4.575121 10.6816,-6.908991 2.60386,-1.715542 5.13478,-3.553016 7.75618,-5.238681 19.45464,-12.510118 -8.26809,5.931389 10.30499,-6.507918 3.85834,-3.311441 13.8074,-10.494818 7.44918,-17.348078 -1.78247,-1.921251 -4.99039,-1.483911 -7.53936,-1.380724 -10.41906,0.421784 -25.05969,6.402392 -33.76214,9.282638 -32.73155,13.884756 -40.40425,16.433118 -74.47079,34.431767 -38.37941,20.277297 -63.90096,36.020859 -100.7792,59.693079 -15.72909,10.09654 -31.38914,20.32254 -46.79058,30.96434 -13.37854,9.24405 -26.353467,19.11997 -39.530198,28.67996 -9.130982,7.43296 -18.308247,14.80333 -27.392945,22.29889 -4.392666,3.62428 -9.828883,6.25151 -13.037366,11.0592 -1.455489,2.18096 -0.120909,5.36543 0.325126,7.98925 0.08101,0.47653 0.548276,-0.77758 0.83673,-1.15455 5.241618,-6.85013 -0.382226,0.72534 5.823481,-7.73486 1.19233,-1.69493 2.381217,-3.39255 3.57699,-5.08479 2.41409,-3.41638 4.637676,-6.96052 7.780965,-9.72688 2.081173,-1.8316 4.351834,-3.41999 6.644993,-4.94536 5.549709,-3.6916 23.101435,-13.97142 27.256332,-16.43584 42.068152,-22.68642 0.74324,-0.59328 50.638382,-26.56011 11.85744,-6.17095 23.6638,-12.45016 35.49389,-18.67903 13.35878,-7.03377 26.78693,-13.92354 40.07274,-21.1089 34.12687,-18.45683 48.39461,-26.937453 81.56728,-46.014444 4.73268,-2.834083 47.76666,-27.623757 54.7859,-34.974329 3.49632,-3.661354 4.78334,-9.213532 5.96239,-14.254965 0.2036,-0.870576 -1.62089,-0.947215 -2.45232,-0.753538 -2.80526,0.653465 -5.43894,1.974876 -8.06444,3.20335 -3.55581,1.663762 -6.9713,3.641863 -10.45694,5.462795 -8.83953,5.439381 -9.77701,5.674766 -17.47875,11.554827 -2.3474,1.792172 -7.9257,5.486296 -5.90409,10.041029 1.54768,3.486973 5.02441,0.530739 6.45276,-0.482975 0.65528,-1.24669 2.02212,-2.316426 1.96586,-3.740069 -0.22583,-5.715105 -4.11628,-5.819919 -8.29964,-5.926437 -2.92248,-0.07441 -5.85832,0.202901 -8.74606,0.681684 -14.87852,2.466821 -20.60208,5.127431 -36.12106,10.192504 -9.43498,3.924613 -19.02179,7.466486 -28.30494,11.77384 -23.35671,10.837457 -50.1135,25.527715 -72.17133,38.676398 -25.25654,15.05543 -48.9354,30.57571 -72.914763,47.74644 -10.036458,7.18674 -19.764501,14.83972 -29.646749,22.25958 -16.577185,13.16838 -24.802647,19.3245 -40.049547,32.67114 -3.684069,3.22492 -7.995595,5.89338 -10.805043,9.97947 -1.144069,1.66395 -0.26198,4.1011 -0.288502,6.15511 -0.01893,1.46617 -0.98083,3.5435 0.152261,4.39598 0.997695,0.75062 2.154707,-1.23318 3.23206,-1.84978 10.022674,-6.5998 4.475454,-2.86937 16.589659,-11.27652 10.859758,-7.23978 18.735547,-11.89771 30.07047,-19.03449 17.92253,-11.28451 28.189161,-17.93857 46.392894,-29.62676 9.28406,-5.89455 18.69244,-11.57732 27.85219,-17.68369 15.09214,-10.06118 41.95984,-29.30466 56.84194,-40.46357 7.50537,-5.6277 14.78465,-11.583753 22.26203,-17.252623 7.84048,-5.944164 21.78279,-15.932402 30.06631,-21.904878 9.27233,-7.28492 10.05013,-8.410945 18.8641,-13.823348 7.33584,-4.504722 15.34827,-7.935789 22.2417,-13.228462 2.15617,-1.655473 4.04345,-3.667849 6.06516,-5.501774 0.37352,-3.110456 2.51442,-6.560858 1.12054,-9.331369 -2.17807,-4.329193 -18.35849,-1.022574 -18.64953,-0.956109 -6.97266,1.592379 -13.83821,3.72172 -20.60218,6.112044 -25.88466,9.147398 -37.88538,15.553187 -63.75212,27.558503 -12.40615,6.616723 -24.97966,12.896495 -37.21843,19.850168 -28.91222,16.426975 -36.67727,22.222258 -63.007183,40.324058 -4.177731,2.87219 -29.211778,19.74211 -34.568413,25.18515 -1.412072,1.43486 -1.506364,3.81595 -2.259545,5.72393 0.123209,1.89391 -1.335014,5.06336 0.369629,5.68172 2.410788,0.8745 4.790726,-1.85523 7.111212,-2.96806 5.131163,-2.46075 10.209262,-5.04745 15.231103,-7.74667 7.755919,-4.16877 15.426244,-8.51251 23.096167,-12.85408 29.99764,-16.98021 31.06061,-17.85906 61.94223,-36.259293 11.43942,-7.242795 23.00473,-14.269598 34.31826,-21.728398 13.63491,-8.989248 40.79925,-27.898199 54.86069,-38.822058 5.13407,-3.988489 10.01952,-8.322299 14.92958,-12.612103 1.9247,-1.681567 5.1669,-2.696493 5.5676,-5.295804 0.39504,-2.562608 -2.4752,-4.490875 -3.7128,-6.736314 -1.29496,0.498905 -2.62608,0.904043 -3.8849,1.496714 -5.03276,2.369518 -12.62171,6.725059 -17.08841,9.384396 -10.56348,6.289155 -20.9331,12.97255 -30.77665,20.457098 -1.61068,1.309898 -3.25626,2.573568 -4.83205,3.929692 -0.74973,0.645211 -2.32135,1.068256 -2.13894,2.069522 1.48657,8.15968 4.07437,5.805571 7.82112,3.671814 2.54457,-1.746105 4.09696,-2.691524 6.4451,-4.834161 1.0793,-0.984836 2.55096,-1.746414 3.06937,-3.147603 0.8126,-2.196288 1.8044,-4.984308 0.69729,-7.032939 -1.69315,-3.133025 -10.33924,-0.491392 -11.73537,-0.224282 -4.25653,1.684292 -8.57893,3.194452 -12.76959,5.052875 -15.12033,6.705394 -31.18293,15.041885 -45.43018,23.255331 -22.77644,13.130475 -42.41884,25.72543 -63.79646,41.443733 -10.16536,7.47427 -19.871255,15.61846 -29.806881,23.42768 -7.234162,6.23083 -14.583043,12.31683 -21.702485,18.69245 -4.761161,4.26373 -10.450536,7.74949 -13.929543,13.21683 -1.835675,2.8848 -0.965277,6.88545 -1.070511,10.3561 -0.02167,0.71466 0.0667,2.28667 0.695368,2.01626 7.227976,-3.10908 11.205768,-12.45753 18.435127,-15.21478 4.949279,-4.5486 9.912031,-9.08101 14.847836,-13.64583 5.678267,-5.25147 11.208803,-10.68274 16.994242,-15.80288 6.060434,-5.36353 12.337594,-10.44968 18.533227,-15.63914 7.02923,-5.88769 14.03379,-11.80928 21.14112,-17.592083 5.65762,-4.60326 37.72546,-29.96466 43.71319,-34.705795 6.06317,-4.881046 12.11858,-9.772808 18.18951,-14.643136 4.20255,-3.371435 8.31605,-6.871749 12.63088,-10.082105 5.81972,-4.330041 9.18052,-5.440202 14.59168,-10.058006 1.74623,-1.490212 4.73466,-2.592544 4.82763,-4.957198 0.11066,-2.814805 -2.90238,-4.733732 -4.35358,-7.100597 -2.0561,0.184648 -4.16126,0.04888 -6.16829,0.553944 -10.57664,2.661594 -25.10661,9.064577 -34.24996,13.294236 -31.97271,14.790569 -62.8576,32.063836 -93.03782,50.527923 -9.311875,6.113061 -18.71635,12.072464 -27.935623,18.339187 -6.271321,4.26288 -13.369263,7.5629 -18.527688,13.24387 -2.436493,2.68331 -2.59863,6.96479 -3.151291,10.63121 -0.08003,0.53093 1.05231,0.59687 1.498271,0.33512 3.295986,-1.93446 6.253443,-4.44878 9.358167,-6.70695 4.979678,-3.62188 9.929786,-7.28864 14.894679,-10.93296 C 106.69065,70.454252 42.395339,116.98598 97.659809,77.719865 105.31551,72.280391 112.94717,66.800779 120.476,61.168417 c 14.61915,-10.936668 28.76394,-22.569363 43.33081,-33.582966 2.36749,-1.934516 4.6561,-3.981085 7.10248,-5.803548 0.11184,-0.08332 8.23493,-5.189648 8.61908,-5.460771 1.09236,-0.770958 3.20395,-1.124438 3.14518,-2.507682 -0.33362,-7.8523187 -2.85947,-6.6438487 -6.83799,-6.3899457 -2.52172,0.773461 -5.08003,1.425184 -7.56515,2.320381 -10.95368,3.9457727 -18.56461,7.5472557 -29.4819,12.7070497 -7.09018,3.351003 -14.19414,6.676794 -21.18214,10.257867 C 93.271074,45.179691 89.342046,48.043518 65.050079,62.454167 45.675905,75.15985 34.882862,81.654796 16.88537,95.530127 12.28447,99.077247 -3.1888355,106.30077 3.9095326,116.86748 7.6252797,122.39879 23.67851,96.285387 21.583304,108.69244 77.463664,72.812003 -2.5855815,124.34921 55.951621,86.183377 61.477412,82.580601 67.132414,79.199744 72.641397,75.568545 83.756731,68.241971 94.634806,60.503413 105.08498,52.158286 c 0.42412,-0.317515 -3.84064,-6.632722 -4.26476,-6.315208 z"
       id="path1983"
       style="fill:#ff9c16;fill-opacity:1;stroke-width:0.781694;stroke-miterlimit:4;stroke-dasharray:none" />
    <path
       inkscape:connector-curvature="0"
       d="m 323.42766,397.26726 c -4.92361,2.77835 -10.58256,4.53774 -14.77082,8.33506 -1.49878,1.35887 -2.91964,5.28404 -1.02104,5.98274 7.08587,2.60765 15.11604,3.16477 22.56756,1.94652 9.64919,-1.57755 18.49977,-6.37541 27.52488,-10.13614 25.21465,-10.50685 20.35186,-7.6713 34.37166,-18.13711 -4.86071,-0.0537 -10.03013,-1.8666 -14.58212,-0.16111 -1.40548,0.52659 -17.58843,12.30294 -7.42367,18.03857 5.30683,2.99446 12.02311,2.94278 18.10305,2.53827 9.22179,-0.61355 20.14059,-5.7233 28.8249,-9.3572 -7.86151,-2.69581 -8.84142,-5.17693 -16.2428,1.59022 -1.579,1.44369 -1.84198,3.86226 -2.76297,5.7934 -0.32816,0.56284 7.63163,5.20367 7.95979,4.64083 v 0 c 3.78359,-3.08874 10.94974,-8.50538 11.34552,-12.83695 0.34766,-3.80494 -3.99207,-6.51592 -5.98811,-9.77388 -10.95164,2.08517 -17.53659,2.46008 -27.70734,8.86012 -2.31536,1.45696 -3.45608,4.24356 -5.09249,6.43578 -0.17668,0.23668 -0.52604,1.04146 -0.32647,0.82373 12.63628,-13.78638 9.01298,-6.49542 8.62049,-26.99928 -22.30587,0.0457 -12.41083,-1.97289 -40.2762,12.89891 -17.13842,9.14681 -26.08021,10.33846 -31.64522,28.13735 -0.32586,1.0422 2.18097,0.11333 3.27146,0.17 4.3935,-3.32835 8.78699,-6.6567 13.18049,-9.98506 0.62259,-0.56077 -7.30795,-9.36554 -7.93055,-8.80477 z"
       id="path1985"
       style="fill:#ff9c16;fill-opacity:1;stroke-width:0.822;stroke-miterlimit:4;stroke-dasharray:none" />
    <path
       inkscape:connector-curvature="0"
       d="m 374.94345,377.47201 c -20.74428,11.18427 -34.12185,17.58228 -53.92247,32.644 -7.4844,5.69315 -15.63831,11.23092 -20.72429,19.14047 -1.91819,2.98309 -1.75712,9.55556 1.65872,10.50966 23.76987,6.63935 47.70342,-8.29479 67.70839,-16.64884 36.54397,-20.51917 22.78967,-9.50415 43.99367,-29.31143 0.78723,-0.63243 -8.15676,-11.76548 -8.94398,-11.13305 v 0 c -28.95175,8.26313 -12.06811,2.17444 -49.30453,21.63862 -10.62773,6.58606 -22.2467,11.7918 -31.88318,19.75816 -5.48028,4.53048 -9.50535,10.78027 -12.72586,17.11959 -0.54936,1.08137 2.40941,1.70289 3.46612,1.10746 8.19262,-4.61632 15.79182,-10.26568 23.15889,-16.10996 23.47335,-18.62133 26.29704,-22.76239 44.72565,-42.2852 0.45463,-0.50963 -6.75249,-6.9391 -7.20713,-6.42948 z"
       id="path1987"
       style="fill:#ff9c16;fill-opacity:1;stroke-width:0.822;stroke-miterlimit:4;stroke-dasharray:none" />
    <path
       inkscape:connector-curvature="0"
       d="m 395.69734,360.40519 c -1.28783,0.82159 -12.08078,4.94253 -6.41572,10.13089 2.48675,2.27751 6.28106,2.54638 9.57708,3.25861 1.1153,0.24101 4.06377,0.46681 3.39264,-0.456 -4.48997,-6.17368 -7.81882,-2.45398 -12.5081,-0.2017 -6.09691,3.61296 -19.59964,11.50516 -25.01063,15.21498 -3.44172,2.35967 -7.89257,4.00137 -9.90348,7.65783 -1.18515,2.15495 -0.64355,6.60292 1.75012,7.16746 6.0719,1.43203 12.37597,-1.58432 18.56396,-2.37647 0.72548,-0.5141 -6.54504,-10.77398 -7.27052,-10.25988 v 0 c -1.73789,2.88827 -4.19465,5.45171 -5.21366,8.6648 -0.58803,1.85415 -1.31565,5.92455 0.62564,5.80186 4.22301,-0.26691 7.3732,-4.17082 10.88631,-6.52944 11.36181,-7.62804 13.32932,-9.7916 23.20621,-18.2948 2.0425,-2.37602 5.66684,-4.02886 6.1275,-7.12807 0.4227,-2.84393 -1.89589,-5.64449 -3.9265,-7.67998 -0.84521,-0.84725 -2.96223,-0.87241 -3.5872,0.1482 -0.73469,1.19978 0.80448,2.70901 0.98305,4.10449 0.0795,0.62117 -0.6928,2.27547 -0.21905,1.8659 2.0477,-1.77026 3.49217,-4.13672 5.23826,-6.20508 0.34532,-0.44519 -5.95059,-5.32879 -6.29591,-4.8836 z"
       id="path1989"
       style="fill:#ff9c16;fill-opacity:1;stroke-width:0.822;stroke-miterlimit:4;stroke-dasharray:none" />
    <path
       inkscape:connector-curvature="0"
       d="m 384.9647,367.40723 c 1.31797,0.75137 2.46653,2.5529 3.95391,2.2541 3.28281,-0.65949 5.94291,-3.09571 8.81379,-4.81903 5.01189,-3.00854 9.88817,-6.23745 14.82352,-9.36997 12.55228,-7.96705 22.94218,-14.35117 34.94891,-23.08287 4.18903,-3.04641 8.14839,-6.39671 12.22259,-9.59507 -0.40692,-2.05573 0.85826,-5.90387 -1.22074,-6.16719 -17.8153,-2.25638 -38.3397,9.85935 -52.5259,16.95991 -29.42961,14.73029 -49.42523,26.21698 -77.41384,43.89072 -12.41882,7.84202 -24.49454,16.21466 -36.7418,24.32199 -22.77244,16.21436 -36.56215,24.97299 -56.84573,42.97378 -4.92692,4.37243 -10.76977,8.26484 -13.86959,14.07721 -1.2443,2.33315 -0.32403,7.43308 2.3157,7.58712 22.42351,1.30846 48.56153,-15.37342 66.40679,-24.07818 42.96882,-24.17266 46.77448,-25.45883 88.1982,-52.17544 12.10781,-7.80904 24.25101,-15.59888 35.84972,-24.14581 5.85629,-4.31543 15.82195,-7.12307 16.42238,-14.3728 0.42109,-5.08427 -10.05217,-4.56608 -14.96711,-3.19842 -9.42597,2.62293 -17.02533,9.6464 -25.538,14.46961 -13.76474,11.30832 -25.02226,17.44729 -33.1302,33.02018 -1.30052,2.49792 -0.83889,5.56958 -1.25834,8.35437 -0.23219,0.63442 8.73989,3.91804 8.97207,3.28362 v 0 c 13.31128,-10.33927 27.26515,-19.81766 39.67481,-31.31313 6.63545,-7.30602 16.09838,-12.81276 19.90637,-21.91806 2.08074,-4.97526 0.97751,-14.1357 -4.20644,-15.6221 -7.73608,-2.21817 -15.5836,4.35859 -22.8242,7.87157 -13.14098,6.3757 -25.54909,14.17374 -38.08003,21.67778 -38.91078,23.30133 -47.66687,30.01845 -85.04378,55.39676 -10.73781,7.99645 -22.51801,14.75667 -32.21345,23.98936 -4.87563,4.64292 -8.21105,10.84004 -10.86103,17.02924 -0.65903,1.53919 -0.0902,5.24687 1.51989,4.78757 6.35634,-1.81318 11.44425,-6.62102 17.07036,-10.09054 16.32662,-10.06833 44.81334,-28.60378 59.90707,-38.35019 6.52068,-4.1507 69.26117,-44.06035 75.06342,-47.86677 11.79158,-7.73556 23.52365,-15.56764 35.06989,-23.66483 17.27436,-12.11422 26.32823,-13.80868 32.0176,-31.95666 0.48523,-1.54779 -0.66672,-3.17489 -1.00008,-4.76234 -4.5622,2.66035 -9.21491,5.17121 -13.6866,7.98104 -11.69855,7.3509 -23.84624,15.76542 -34.53941,24.51313 -3.14859,2.57575 -18.95049,15.76978 -20.9656,21.88061 -0.81505,2.47164 1.25916,5.05052 1.88874,7.57579 0.51944,0.13337 2.40559,-7.21269 1.88614,-7.34606 z"
       id="path1991"
       style="fill:#ff9c16;fill-opacity:1;stroke-width:0.822;stroke-miterlimit:4;stroke-dasharray:none" />
    <path
       inkscape:connector-curvature="0"
       d="m 330.88323,431.03638 c 0.43627,-0.15961 0.87255,-0.31922 1.30882,-0.47883 0.87707,0.6915 1.52794,2.24836 2.63121,2.0745 12.06108,-1.90065 30.4615,-13.03152 38.84797,-18.12458 21.21326,-12.88271 16.73771,-8.09991 25.47123,-21.31858 0.56078,-0.49798 -6.48178,-8.42855 -7.04256,-7.93056 v 0 c -16.29776,3.27866 -11.26528,1.08715 -31.25616,15.35429 -7.76275,5.54014 -28.37771,21.00275 -33.59291,31.8533 -3.33576,6.94025 5.63103,5.13504 7.0575,5.06835 0.45947,-0.24219 -2.96563,-6.74008 -3.4251,-6.49789 z"
       id="path1993"
       style="fill:#ff9c16;fill-opacity:1;stroke-width:0.822;stroke-miterlimit:4;stroke-dasharray:none" />
    <text
       transform="scale(0.97400337,1.0266905)"
       id="text844"
       y="370.67206"
       x="66.87384"
       style="font-style:normal;font-variant:normal;font-weight:bold;font-stretch:normal;font-size:367.702px;line-height:1.25;font-family:Futura;-inkscape-font-specification:'Futura, Bold';font-variant-ligatures:normal;font-variant-caps:normal;font-variant-numeric:normal;font-variant-east-asian:normal;fill:#000000;fill-opacity:1;stroke:none;stroke-width:1.37888"
       xml:space="preserve"><tspan
         style="font-style:normal;font-variant:normal;font-weight:bold;font-stretch:normal;font-size:367.702px;font-family:Futura;-inkscape-font-specification:'Futura, Bold';font-variant-ligatures:normal;font-variant-caps:normal;font-variant-numeric:normal;font-variant-east-asian:normal;stroke-width:1.37888"
         y="370.67206"
         x="66.87384"
         id="tspan842"
         sodipodi:role="line">M</tspan></text>
  </g>
</svg>
